<?xml version="1.0" ?><!DOCTYPE svg  PUBLIC '-//W3C//DTD SVG 1.1//EN'  'http://www.w3.org/Graphics/SVG/1.1/DTD/svg11.dtd'><svg height="512px" id="形状_1_1_" style="enable-background:new 0 0 512 512;" version="1.1" viewBox="0 0 512 512" width="512px" xml:space="preserve" xmlns="http://www.w3.org/2000/svg" xmlns:xlink="http://www.w3.org/1999/xlink"><g id="形状_1"><g><path d="M102.677,26.516v460.031h307.021V26.516H102.677z     M236.665,100.673c12.977-0.332,26.069-0.332,39.068,0c33.559,0.867,67.165,4.435,98.796,15.143l-7.068,10.353    c-26.784-9.394-58.576-13.908-92.121-14.918c-12.686-0.391-25.612-0.391-38.307,0c-33.551,1.01-65.338,5.524-92.119,14.918    l-7.063-10.353C169.488,105.107,203.078,101.54,236.665,100.673z M173.36,382.806c-0.708,2.939-3.07,5.375-6.287,6.664h-9.829    l-0.558,0.232v26.472h-6.128v-26.472l-0.499-0.232h-9.798c-3.247-1.289-5.625-3.725-6.321-6.664v-0.043h39.42V382.806z     M217.895,416.13h-23.326c-3.268-1.292-5.654-3.762-6.329-6.704h35.966C223.522,412.368,221.168,414.838,217.895,416.13z     M217.895,402.548h-23.326c-3.268-1.276-5.654-3.759-6.329-6.675h35.966C223.522,398.789,221.168,401.271,217.895,402.548z     M217.895,389.57h-23.326c-3.268-1.303-5.654-3.746-6.329-6.69h35.966C223.522,385.824,221.168,388.268,217.895,389.57z     M275.721,416.174h-34.006l0.116-0.25c0.662-2.927,3.027-5.175,6.21-6.475h21.666v-6.923h-27.992v-19.721h33.834    c-0.656,2.947-3.055,5.565-6.275,6.548h-21.527v6.619h27.975V416.174z M320.684,415.924l-27.614-0.082v-33.036l6.026-0.019    l-0.04,26.589h26.911C325.338,412.146,323.693,414.55,320.684,415.924z M292.35,137.694L256.187,331.44l-36.159-193.746    c-19.298,0-39.393,2.963-39.914,17.165c-9.096-2.283-25.66-12.563-29.464-19.79c27.592-11.165,73.11-12.613,92.883-11.869    l12.654,16.231l12.664-16.231c19.773-0.744,65.292,0.704,92.88,11.869c-3.81,7.228-20.382,17.507-29.486,19.79    C331.724,140.657,311.63,137.694,292.35,137.694z M377.617,416.042h-6.023v-13.481h-21.916v13.481h-6.023v-20.241l33.963,0.048    V416.042z M372.202,389.44h-23.291c-3.273-1.31-5.785-3.632-6.428-6.574h35.957C377.784,385.809,375.476,388.131,372.202,389.44z" style="fill-rule:evenodd;clip-rule:evenodd;fill:#BD0C16;"/></g></g></svg>